<svg xmlns="http://www.w3.org/2000/svg" version="1.1" xmlns:xlink="http://www.w3.org/1999/xlink" xmlns:svgjs="http://svgjs.dev/svgjs" width="512" height="512"><svg version="1.1" xmlns="http://www.w3.org/2000/svg" width="512" height="512">
<path d="M0 0 C39.93 0 79.86 0 121 0 C121 125.07 121 250.14 121 379 C81.07 379 41.14 379 0 379 C0 335.28890263 0 335.28890263 0.21875 317.6015625 C0.24136032 315.63805353 0.26377522 313.6745423 0.28601074 311.71102905 C0.34328247 306.69738418 0.40309221 301.6837732 0.46356201 296.67016602 C0.52551873 291.49236919 0.58489413 286.31454271 0.64453125 281.13671875 C0.76059265 271.09111644 0.87935372 261.04554823 1 251 C-3.35129336 250.97184361 -7.70253611 250.95161105 -12.05389404 250.9382019 C-13.5290825 250.93260206 -15.00426488 250.92496946 -16.47943115 250.91513062 C-48.53950923 250.70691294 -78.97486193 257.69878136 -102.609375 280.51953125 C-123.51371703 302.15235793 -130.35915561 333.04919232 -130.16796875 362.30078125 C-129.9148608 367.87504239 -129.42796681 373.43643143 -129 379 C-168.93 379 -208.86 379 -250 379 C-250 306.71877171 -234.94909675 242.73962548 -182.78735352 190.53613281 C-143.95214991 152.60605126 -88.80349189 134.91814086 -36 129 C-34.94941406 128.86851562 -33.89882813 128.73703125 -32.81640625 128.6015625 C-21.93784722 127.43318316 -10.88459479 128 0 128 C0 85.76 0 43.52 0 0 Z " fill="#964DC2" transform="translate(315,62)"></path>
<path d="M0 0 C40.26 0 80.52 0 122 0 C122 17.68786173 121.97770331 35.36566161 121.78125 53.05078125 C121.75869658 55.18409589 121.73627943 57.31741197 121.71398926 59.45072937 C121.65614841 64.95276362 121.59651022 70.45477683 121.53643799 75.95678711 C121.47498353 81.61636169 121.41531124 87.27595506 121.35546875 92.93554688 C121.23867881 103.95704985 121.11998151 114.97853133 121 126 C119.92548584 126.53399414 118.85097168 127.06798828 117.74389648 127.61816406 C116.30709835 128.33392304 114.87033249 129.04974681 113.43359375 129.765625 C112.72859741 130.1157666 112.02360107 130.4659082 111.29724121 130.82666016 C93.82163403 139.54182043 77.78778815 150.2340716 63 163 C62.22011719 163.66902344 61.44023438 164.33804688 60.63671875 165.02734375 C48.71962026 175.50112753 37.6915239 186.63944115 28.21582031 199.37402344 C27.065981 200.91176035 25.88920498 202.42924819 24.7109375 203.9453125 C15.55524665 215.81859357 7.23802617 228.33951231 1 242 C0.67 242 0.34 242 0 242 C0 162.14 0 82.28 0 0 Z " fill="#4F3F98" transform="translate(65,62)"></path>
</svg><style>@media (prefers-color-scheme: light) { :root { filter: none; } }
@media (prefers-color-scheme: dark) { :root { filter: contrast(0.9090909090909091) brightness(1.5); } }
</style></svg>